<svg viewBox="0 0 52 52" 
    width="52" 
    height="52" 
    xmlns="http://www.w3.org/2000/svg" 
    xmlns:bx="https://boxy-svg.com">
    <rect width="100%" height="100%" fill="#225f8c"/>
    <path d="M 34.996 27.173 
             C 41.499 27.169 45.571 33.914 42.324 39.316 
             C 39.077 44.718 30.947 44.724 27.689 39.328 
             C 26.944 38.093 26.552 36.692 26.553 35.265 
             C 26.562 30.8 30.336 27.181 34.996 27.173 
             Z 
             M 21.34 34.522 
             C 23.637 34.522 25.072 36.904 23.923 38.81 
             C 22.776 40.716 19.906 40.716 18.757 38.81 
             C 18.496 38.375 18.357 37.883 18.357 37.381 
             C 18.357 35.802 19.693 34.522 21.34 34.522 
             Z 
             M 38.075 31.976 L 33.556 36.83 L 31.513 34.85 
             C 31.283 34.634 30.914 34.634 30.685 34.85 
             L 29.857 35.615 
             C 29.634 35.798 29.61 36.12 29.804 36.33 
             L 29.857 36.387 
             L 32.706 39.074 
             C 32.931 39.292 33.236 39.416 33.556 39.418 
             C 33.875 39.427 34.183 39.302 34.399 39.074 
             L 39.76 33.449 
             C 39.926 33.239 39.926 32.946 39.76 32.734 
             L 38.925 31.984 C 38.695 31.768 38.327 31.768 38.098 31.984 
             L 38.075 31.976 
             Z 
             M 12.272 9.054 
             C 13.046 9.072 13.72 9.561 13.95 10.269 
             L 14.412 11.812 
             L 40.73 11.812 C 41.345 11.797 41.859 12.26 41.879 12.849 
             C 41.886 12.964 41.871 13.077 41.834 13.185 
             L 38.717 23.657 
             C 38.663 23.89 38.525 24.098 38.329 24.243 
             C 37.245 23.944 36.122 23.791 34.996 23.785 
             C 33.602 23.794 32.221 24.036 30.916 24.5 
             L 20.595 24.5 
             C 19.689 24.492 18.947 25.19 18.939 26.058 
             C 18.938 26.241 18.97 26.423 19.036 26.595 
             L 19.036 26.651 
             C 19.247 27.34 19.906 27.811 20.654 27.81 
             L 25.949 27.81 
             C 25.071 28.789 24.373 29.903 23.883 31.105 
             L 18.089 31.105 
             C 17.307 31.11 16.62 30.612 16.411 29.889 L 11.004 12.356 
             L 9.386 12.356 
             C 8.412 12.341 7.635 11.574 7.648 10.641 
             L 7.648 10.597 
             C 7.762 9.706 8.56 9.04 9.497 9.054 
             L 12.272 9.054 Z" 
             style="paint-order: fill; fill: rgb(255, 255, 255);" bx:origin="0.507 0.496"/>
</svg>